<svg width="139" height="24" viewBox="0 0 139 24" fill="none" xmlns="http://www.w3.org/2000/svg">
<g clip-path="url(#clip0_2950_567)">
<path d="M13 23.5H2C1.73478 23.5 1.48043 23.3946 1.29289 23.2071C1.10536 23.0196 1 22.7652 1 22.5V1.5C1 1.23478 1.10536 0.98043 1.29289 0.792893C1.48043 0.605357 1.73478 0.5 2 0.5H23C23.2652 0.5 23.5196 0.605357 23.7071 0.792893C23.8946 0.98043 24 1.23478 24 1.5V22.5C24 22.7652 23.8946 23.0196 23.7071 23.2071C23.5196 23.3946 23.2652 23.5 23 23.5H17V14.5H19.559C19.6815 14.5009 19.8001 14.4569 19.8923 14.3761C19.9845 14.2954 20.0438 14.1836 20.059 14.062L20.434 11.062C20.4428 10.9913 20.4365 10.9196 20.4153 10.8516C20.3942 10.7836 20.3588 10.7208 20.3114 10.6676C20.2641 10.6144 20.2059 10.5719 20.1408 10.543C20.0757 10.5141 20.0052 10.4995 19.934 10.5H17V9.185C17.0005 8.7381 17.1784 8.30967 17.4945 7.99376C17.8106 7.67784 18.2391 7.50026 18.686 7.5H20.5C20.6326 7.5 20.7598 7.44732 20.8536 7.35355C20.9473 7.25979 21 7.13261 21 7V4C21 3.86739 20.9473 3.74021 20.8536 3.64645C20.7598 3.55268 20.6326 3.5 20.5 3.5H18.686C17.1786 3.50159 15.7335 4.10102 14.6675 5.16679C13.6015 6.23256 13.0019 7.67764 13 9.185V10.5H10.5C10.3674 10.5 10.2402 10.5527 10.1464 10.6464C10.0527 10.7402 10 10.8674 10 11V14C10 14.1326 10.0527 14.2598 10.1464 14.3536C10.2402 14.4473 10.3674 14.5 10.5 14.5H13V23.5Z" stroke="white" stroke-linecap="round" stroke-linejoin="round"/>
</g>
<path d="M44.8457 17H40.5596V16.5146C40.7145 16.5101 40.9128 16.4941 41.1543 16.4668C41.4004 16.4395 41.569 16.4007 41.6602 16.3506C41.8014 16.264 41.904 16.166 41.9678 16.0566C42.0361 15.9427 42.0703 15.8014 42.0703 15.6328V8.57812H41.9678L38.6592 16.8428H38.3174L35.166 8.40723H35.0771V14.1973C35.0771 14.7578 35.1113 15.1839 35.1797 15.4756C35.2526 15.7673 35.362 15.9769 35.5078 16.1045C35.6081 16.2002 35.8154 16.2913 36.1299 16.3779C36.4443 16.4645 36.6494 16.5101 36.7451 16.5146V17H32.8281V16.5146C33.0332 16.4964 33.2474 16.4622 33.4707 16.4121C33.6986 16.362 33.874 16.2868 33.9971 16.1865C34.1566 16.0589 34.266 15.863 34.3252 15.5986C34.3844 15.3343 34.4141 14.8923 34.4141 14.2725V9.30957C34.4141 9.02246 34.3799 8.78776 34.3115 8.60547C34.2432 8.42318 34.1452 8.27507 34.0176 8.16113C33.8763 8.03809 33.7031 7.94694 33.498 7.8877C33.293 7.82845 33.0902 7.79427 32.8896 7.78516V7.2998H36.1982L38.9736 14.5732L41.3457 8.48926C41.4323 8.26595 41.5052 8.03353 41.5645 7.79199C41.6283 7.5459 41.6624 7.38184 41.667 7.2998H44.832V7.78516C44.7044 7.78971 44.5404 7.81022 44.3398 7.84668C44.1439 7.88314 44.0003 7.91732 43.9092 7.94922C43.7542 8.00391 43.6494 8.09505 43.5947 8.22266C43.54 8.35026 43.5127 8.48926 43.5127 8.63965V15.6328C43.5127 15.7923 43.54 15.9268 43.5947 16.0361C43.6494 16.1455 43.7542 16.2412 43.9092 16.3232C43.9912 16.3688 44.137 16.4121 44.3467 16.4531C44.5563 16.4896 44.7227 16.5101 44.8457 16.5146V17ZM49.2549 17H45.9941V16.5488C46.099 16.5397 46.2061 16.5306 46.3154 16.5215C46.4294 16.5124 46.5273 16.4941 46.6094 16.4668C46.737 16.4258 46.8304 16.3551 46.8896 16.2549C46.9535 16.1501 46.9854 16.0156 46.9854 15.8516V11.6885C46.9854 11.5426 46.9512 11.4105 46.8828 11.292C46.819 11.1689 46.7279 11.0664 46.6094 10.9844C46.5228 10.9297 46.3975 10.8841 46.2334 10.8477C46.0693 10.8066 45.9189 10.7816 45.7822 10.7725V10.3281L48.1611 10.1777L48.2568 10.2734V15.7695C48.2568 15.929 48.2865 16.0612 48.3457 16.166C48.4095 16.2708 48.5075 16.3483 48.6396 16.3984C48.7399 16.4395 48.8379 16.4736 48.9336 16.501C49.0293 16.5238 49.1364 16.5397 49.2549 16.5488V17ZM48.3936 7.51855C48.3936 7.77832 48.307 8.00618 48.1338 8.20215C47.9652 8.39355 47.7555 8.48926 47.5049 8.48926C47.2725 8.48926 47.0697 8.39811 46.8965 8.21582C46.7279 8.02897 46.6436 7.81706 46.6436 7.58008C46.6436 7.32943 46.7279 7.11068 46.8965 6.92383C47.0697 6.73698 47.2725 6.64355 47.5049 6.64355C47.7646 6.64355 47.9766 6.73242 48.1406 6.91016C48.3092 7.08333 48.3936 7.28613 48.3936 7.51855ZM54.2451 16.7061C53.9489 16.8291 53.6686 16.9316 53.4043 17.0137C53.14 17.1003 52.8164 17.1436 52.4336 17.1436C51.8685 17.1436 51.4697 17.0023 51.2373 16.7197C51.0094 16.4326 50.8955 16.0293 50.8955 15.5098V10.9434H49.6787V10.2871H50.9229V8.18848H52.167V10.2871H54.1016V10.9434H52.1807V14.71C52.1807 14.9925 52.1898 15.2295 52.208 15.4209C52.2308 15.6077 52.2809 15.7718 52.3584 15.9131C52.4313 16.0452 52.5407 16.1455 52.6865 16.2139C52.8324 16.2822 53.0283 16.3164 53.2744 16.3164C53.3883 16.3164 53.5547 16.3073 53.7734 16.2891C53.9967 16.2663 54.154 16.2389 54.2451 16.207V16.7061ZM61.4912 13.5615C61.4912 14.0355 61.416 14.5026 61.2656 14.9629C61.1152 15.4186 60.901 15.806 60.623 16.125C60.3086 16.4896 59.944 16.7607 59.5293 16.9385C59.1146 17.1162 58.6497 17.2051 58.1348 17.2051C57.7064 17.2051 57.2985 17.1253 56.9111 16.9658C56.5238 16.8018 56.1797 16.5648 55.8789 16.2549C55.5827 15.9495 55.3457 15.5781 55.168 15.1406C54.9948 14.6986 54.9082 14.2041 54.9082 13.6572C54.9082 12.6045 55.2135 11.7432 55.8242 11.0732C56.4395 10.4033 57.2438 10.0684 58.2373 10.0684C59.1807 10.0684 59.9577 10.3874 60.5684 11.0254C61.1836 11.6589 61.4912 12.5042 61.4912 13.5615ZM60.0762 13.5752C60.0762 13.2334 60.042 12.8734 59.9736 12.4951C59.9053 12.1123 59.8027 11.7887 59.666 11.5244C59.5202 11.2419 59.3288 11.0163 59.0918 10.8477C58.8548 10.6745 58.5654 10.5879 58.2236 10.5879C57.8727 10.5879 57.5719 10.6745 57.3213 10.8477C57.0752 11.0208 56.8747 11.2578 56.7197 11.5586C56.5739 11.8366 56.4714 12.1533 56.4121 12.5088C56.3529 12.8643 56.3232 13.2083 56.3232 13.541C56.3232 13.9785 56.3574 14.3841 56.4258 14.7578C56.4987 15.127 56.6126 15.4574 56.7676 15.749C56.9225 16.0407 57.1162 16.2708 57.3486 16.4395C57.5856 16.6035 57.8773 16.6855 58.2236 16.6855C58.7933 16.6855 59.2445 16.4098 59.5771 15.8584C59.9098 15.307 60.0762 14.5459 60.0762 13.5752ZM73.3721 13.6025H70.2891V16.6855H69.4209V13.6025H66.3379V12.748H69.4209V9.66504H70.2891V12.748H73.3721V13.6025ZM84.6172 16.877C84.403 16.9544 84.2139 17.016 84.0498 17.0615C83.8903 17.1117 83.708 17.1367 83.5029 17.1367C83.1475 17.1367 82.8626 17.0547 82.6484 16.8906C82.4388 16.722 82.3044 16.4782 82.2451 16.1592H82.2041C81.9079 16.4873 81.5889 16.738 81.2471 16.9111C80.9098 17.0843 80.502 17.1709 80.0234 17.1709C79.5176 17.1709 79.1006 17.016 78.7725 16.7061C78.4489 16.3962 78.2871 15.9906 78.2871 15.4893C78.2871 15.2295 78.3236 14.9971 78.3965 14.792C78.4694 14.5869 78.5788 14.4023 78.7246 14.2383C78.8385 14.1016 78.9889 13.9808 79.1758 13.876C79.3626 13.7666 79.5381 13.68 79.7021 13.6162C79.9072 13.5387 80.3219 13.3952 80.9463 13.1855C81.5752 12.9759 81.999 12.8118 82.2178 12.6934V12.0166C82.2178 11.9574 82.2041 11.8434 82.1768 11.6748C82.154 11.5062 82.1016 11.3467 82.0195 11.1963C81.9284 11.0277 81.7985 10.8818 81.6299 10.7588C81.4658 10.6312 81.2311 10.5674 80.9258 10.5674C80.7161 10.5674 80.5202 10.6038 80.3379 10.6768C80.1602 10.7451 80.0348 10.818 79.9619 10.8955C79.9619 10.9867 79.9824 11.1211 80.0234 11.2988C80.069 11.4766 80.0918 11.6406 80.0918 11.791C80.0918 11.9505 80.0189 12.0964 79.873 12.2285C79.7318 12.3607 79.5335 12.4268 79.2783 12.4268C79.0505 12.4268 78.8818 12.347 78.7725 12.1875C78.6676 12.0234 78.6152 11.8411 78.6152 11.6406C78.6152 11.431 78.6882 11.2305 78.834 11.0391C78.9844 10.8477 79.1781 10.6768 79.415 10.5264C79.6201 10.3988 79.8685 10.2917 80.1602 10.2051C80.4518 10.1139 80.7367 10.0684 81.0146 10.0684C81.3975 10.0684 81.7301 10.0957 82.0127 10.1504C82.2998 10.2005 82.5596 10.3122 82.792 10.4854C83.0244 10.654 83.1999 10.8841 83.3184 11.1758C83.4414 11.4629 83.5029 11.8343 83.5029 12.29C83.5029 12.9417 83.4961 13.5205 83.4824 14.0264C83.4688 14.5277 83.4619 15.0768 83.4619 15.6738C83.4619 15.8516 83.4915 15.9928 83.5508 16.0977C83.6146 16.2025 83.7103 16.2913 83.8379 16.3643C83.9062 16.4053 84.0133 16.4281 84.1592 16.4326C84.3096 16.4372 84.4622 16.4395 84.6172 16.4395V16.877ZM82.2314 13.2676C81.8441 13.3815 81.5046 13.4932 81.2129 13.6025C80.9212 13.7119 80.6501 13.8486 80.3994 14.0127C80.1715 14.1676 79.9915 14.3522 79.8594 14.5664C79.7272 14.776 79.6611 15.0267 79.6611 15.3184C79.6611 15.6966 79.7591 15.9746 79.9551 16.1523C80.1556 16.3301 80.4085 16.4189 80.7139 16.4189C81.0374 16.4189 81.3223 16.3415 81.5684 16.1865C81.8145 16.027 82.0218 15.8402 82.1904 15.626L82.2314 13.2676ZM95.9854 17H92.6768V16.5488C92.7816 16.5397 92.8978 16.5306 93.0254 16.5215C93.153 16.5124 93.2578 16.4941 93.3398 16.4668C93.4674 16.4258 93.5609 16.3551 93.6201 16.2549C93.6839 16.1501 93.7158 16.0156 93.7158 15.8516V12.3857C93.7158 11.9072 93.6019 11.5381 93.374 11.2783C93.1507 11.0186 92.8773 10.8887 92.5537 10.8887C92.3167 10.8887 92.0957 10.9274 91.8906 11.0049C91.6901 11.0778 91.5101 11.1689 91.3506 11.2783C91.1956 11.3923 91.0771 11.5062 90.9951 11.6201C90.9131 11.734 90.8493 11.8298 90.8037 11.9072V15.7832C90.8037 15.9382 90.8333 16.0658 90.8926 16.166C90.9564 16.2663 91.0521 16.3438 91.1797 16.3984C91.2799 16.444 91.3825 16.4782 91.4873 16.501C91.5967 16.5238 91.7152 16.5397 91.8428 16.5488V17H88.5342V16.5488C88.639 16.5397 88.7484 16.5306 88.8623 16.5215C88.9762 16.5078 89.0719 16.4896 89.1494 16.4668C89.277 16.4258 89.3727 16.3551 89.4365 16.2549C89.5003 16.1501 89.5322 16.0156 89.5322 15.8516V8.00391C89.5322 7.84896 89.4958 7.69401 89.4229 7.53906C89.3545 7.38411 89.2633 7.2679 89.1494 7.19043C89.0674 7.13118 88.9215 7.09017 88.7119 7.06738C88.5068 7.04004 88.3405 7.02181 88.2129 7.0127V6.5752L90.708 6.41797L90.8037 6.52051V11.2236H90.8311C90.9814 11.0732 91.1182 10.9411 91.2412 10.8271C91.3643 10.7087 91.526 10.5856 91.7266 10.458C91.8997 10.3486 92.1025 10.2575 92.335 10.1846C92.5719 10.1117 92.8363 10.0752 93.1279 10.0752C93.7295 10.0752 94.1921 10.2666 94.5156 10.6494C94.8392 11.0277 95.001 11.5745 95.001 12.29V15.7969C95.001 15.9564 95.0283 16.0863 95.083 16.1865C95.1423 16.2822 95.238 16.3574 95.3701 16.4121C95.4749 16.4531 95.5684 16.485 95.6504 16.5078C95.737 16.526 95.8486 16.5397 95.9854 16.5488V17ZM103.197 16.877C102.983 16.9544 102.794 17.016 102.63 17.0615C102.47 17.1117 102.288 17.1367 102.083 17.1367C101.728 17.1367 101.443 17.0547 101.229 16.8906C101.019 16.722 100.884 16.4782 100.825 16.1592H100.784C100.488 16.4873 100.169 16.738 99.8271 16.9111C99.4899 17.0843 99.082 17.1709 98.6035 17.1709C98.0977 17.1709 97.6807 17.016 97.3525 16.7061C97.029 16.3962 96.8672 15.9906 96.8672 15.4893C96.8672 15.2295 96.9036 14.9971 96.9766 14.792C97.0495 14.5869 97.1589 14.4023 97.3047 14.2383C97.4186 14.1016 97.569 13.9808 97.7559 13.876C97.9427 13.7666 98.1182 13.68 98.2822 13.6162C98.4873 13.5387 98.902 13.3952 99.5264 13.1855C100.155 12.9759 100.579 12.8118 100.798 12.6934V12.0166C100.798 11.9574 100.784 11.8434 100.757 11.6748C100.734 11.5062 100.682 11.3467 100.6 11.1963C100.508 11.0277 100.379 10.8818 100.21 10.7588C100.046 10.6312 99.8112 10.5674 99.5059 10.5674C99.2962 10.5674 99.1003 10.6038 98.918 10.6768C98.7402 10.7451 98.6149 10.818 98.542 10.8955C98.542 10.9867 98.5625 11.1211 98.6035 11.2988C98.6491 11.4766 98.6719 11.6406 98.6719 11.791C98.6719 11.9505 98.599 12.0964 98.4531 12.2285C98.3118 12.3607 98.1136 12.4268 97.8584 12.4268C97.6305 12.4268 97.4619 12.347 97.3525 12.1875C97.2477 12.0234 97.1953 11.8411 97.1953 11.6406C97.1953 11.431 97.2682 11.2305 97.4141 11.0391C97.5645 10.8477 97.7581 10.6768 97.9951 10.5264C98.2002 10.3988 98.4486 10.2917 98.7402 10.2051C99.0319 10.1139 99.3167 10.0684 99.5947 10.0684C99.9775 10.0684 100.31 10.0957 100.593 10.1504C100.88 10.2005 101.14 10.3122 101.372 10.4854C101.604 10.654 101.78 10.8841 101.898 11.1758C102.021 11.4629 102.083 11.8343 102.083 12.29C102.083 12.9417 102.076 13.5205 102.062 14.0264C102.049 14.5277 102.042 15.0768 102.042 15.6738C102.042 15.8516 102.072 15.9928 102.131 16.0977C102.195 16.2025 102.29 16.2913 102.418 16.3643C102.486 16.4053 102.593 16.4281 102.739 16.4326C102.89 16.4372 103.042 16.4395 103.197 16.4395V16.877ZM100.812 13.2676C100.424 13.3815 100.085 13.4932 99.793 13.6025C99.5013 13.7119 99.2301 13.8486 98.9795 14.0127C98.7516 14.1676 98.5716 14.3522 98.4395 14.5664C98.3073 14.776 98.2412 15.0267 98.2412 15.3184C98.2412 15.6966 98.3392 15.9746 98.5352 16.1523C98.7357 16.3301 98.9886 16.4189 99.2939 16.4189C99.6175 16.4189 99.9023 16.3415 100.148 16.1865C100.395 16.027 100.602 15.8402 100.771 15.626L100.812 13.2676ZM110.525 10.6768C110.32 10.7132 110.124 10.7884 109.938 10.9023C109.755 11.0117 109.598 11.2077 109.466 11.4902C109.197 12.1009 108.919 12.7389 108.632 13.4043C108.345 14.0651 108.046 14.7601 107.736 15.4893C107.645 15.6989 107.547 15.9473 107.442 16.2344C107.342 16.5215 107.249 16.7972 107.162 17.0615H106.629C106.196 15.9906 105.797 15.0153 105.433 14.1357C105.068 13.2516 104.69 12.347 104.298 11.4219C104.207 11.2122 104.059 11.0505 103.854 10.9365C103.653 10.818 103.45 10.7428 103.245 10.7109V10.2598H106.362V10.7383C106.226 10.7428 106.055 10.7725 105.85 10.8271C105.645 10.8773 105.542 10.9479 105.542 11.0391C105.542 11.0527 105.553 11.0892 105.576 11.1484C105.599 11.2031 105.622 11.2669 105.645 11.3398C105.831 11.8047 106.096 12.4541 106.438 13.2881C106.779 14.1221 107.057 14.7943 107.271 15.3047C107.436 14.9128 107.641 14.4251 107.887 13.8418C108.137 13.2585 108.406 12.6068 108.693 11.8867C108.739 11.7637 108.782 11.6497 108.823 11.5449C108.864 11.4355 108.885 11.3262 108.885 11.2168C108.885 11.1393 108.846 11.071 108.769 11.0117C108.696 10.9479 108.607 10.8932 108.502 10.8477C108.397 10.8021 108.295 10.7679 108.194 10.7451C108.094 10.7223 108.012 10.7064 107.948 10.6973V10.2598H110.525V10.6768ZM116.814 15.4141C116.532 15.9518 116.154 16.3802 115.68 16.6992C115.206 17.0182 114.661 17.1777 114.046 17.1777C113.504 17.1777 113.027 17.082 112.617 16.8906C112.212 16.6992 111.877 16.4395 111.612 16.1113C111.348 15.7832 111.15 15.4004 111.018 14.9629C110.89 14.5254 110.826 14.0628 110.826 13.5752C110.826 13.1377 110.895 12.7093 111.031 12.29C111.173 11.8662 111.378 11.4857 111.646 11.1484C111.906 10.8249 112.228 10.5651 112.61 10.3691C112.998 10.1686 113.431 10.0684 113.909 10.0684C114.401 10.0684 114.823 10.1458 115.174 10.3008C115.525 10.4557 115.81 10.6676 116.028 10.9365C116.238 11.1917 116.393 11.4925 116.493 11.8389C116.598 12.1852 116.65 12.5612 116.65 12.9668V13.418H112.187C112.187 13.86 112.228 14.2611 112.31 14.6211C112.396 14.9811 112.531 15.2979 112.713 15.5713C112.891 15.8356 113.123 16.0452 113.41 16.2002C113.697 16.3506 114.039 16.4258 114.436 16.4258C114.841 16.4258 115.19 16.3324 115.481 16.1455C115.778 15.9541 116.062 15.6123 116.336 15.1201L116.814 15.4141ZM115.304 12.8438C115.304 12.5885 115.281 12.3151 115.235 12.0234C115.194 11.7318 115.126 11.488 115.03 11.292C114.925 11.0824 114.782 10.9115 114.6 10.7793C114.417 10.6471 114.183 10.5811 113.896 10.5811C113.417 10.5811 113.018 10.7816 112.699 11.1826C112.385 11.5791 112.214 12.1328 112.187 12.8438H115.304ZM122.755 11.1279C122.755 11.3604 122.698 11.5677 122.584 11.75C122.47 11.9277 122.295 12.0166 122.058 12.0166C121.802 12.0166 121.606 11.9505 121.47 11.8184C121.338 11.6862 121.271 11.5404 121.271 11.3809C121.271 11.2806 121.278 11.1895 121.292 11.1074C121.31 11.0254 121.326 10.9434 121.34 10.8613C121.126 10.8613 120.875 10.9479 120.588 11.1211C120.301 11.2943 120.057 11.5404 119.856 11.8594V15.7832C119.856 15.9427 119.886 16.0726 119.945 16.1729C120.009 16.2731 120.107 16.3483 120.239 16.3984C120.353 16.444 120.499 16.4782 120.677 16.501C120.859 16.5238 121.016 16.5397 121.148 16.5488V17H117.594V16.5488C117.699 16.5397 117.806 16.5306 117.915 16.5215C118.029 16.5124 118.127 16.4941 118.209 16.4668C118.337 16.4258 118.43 16.3551 118.489 16.2549C118.553 16.1501 118.585 16.0156 118.585 15.8516V11.6885C118.585 11.5472 118.551 11.4082 118.482 11.2715C118.419 11.1348 118.327 11.0254 118.209 10.9434C118.122 10.8887 118.02 10.8499 117.901 10.8271C117.783 10.7998 117.655 10.7816 117.519 10.7725V10.3281L119.761 10.1777L119.856 10.2734V11.2236H119.891C120.173 10.8545 120.488 10.5742 120.834 10.3828C121.18 10.1914 121.497 10.0957 121.784 10.0957C122.071 10.0957 122.304 10.1891 122.481 10.376C122.664 10.5628 122.755 10.8135 122.755 11.1279ZM129.905 13.5615C129.905 14.0355 129.83 14.5026 129.68 14.9629C129.529 15.4186 129.315 15.806 129.037 16.125C128.723 16.4896 128.358 16.7607 127.943 16.9385C127.529 17.1162 127.064 17.2051 126.549 17.2051C126.12 17.2051 125.713 17.1253 125.325 16.9658C124.938 16.8018 124.594 16.5648 124.293 16.2549C123.997 15.9495 123.76 15.5781 123.582 15.1406C123.409 14.6986 123.322 14.2041 123.322 13.6572C123.322 12.6045 123.628 11.7432 124.238 11.0732C124.854 10.4033 125.658 10.0684 126.651 10.0684C127.595 10.0684 128.372 10.3874 128.982 11.0254C129.598 11.6589 129.905 12.5042 129.905 13.5615ZM128.49 13.5752C128.49 13.2334 128.456 12.8734 128.388 12.4951C128.319 12.1123 128.217 11.7887 128.08 11.5244C127.934 11.2419 127.743 11.0163 127.506 10.8477C127.269 10.6745 126.979 10.5879 126.638 10.5879C126.287 10.5879 125.986 10.6745 125.735 10.8477C125.489 11.0208 125.289 11.2578 125.134 11.5586C124.988 11.8366 124.885 12.1533 124.826 12.5088C124.767 12.8643 124.737 13.2083 124.737 13.541C124.737 13.9785 124.771 14.3841 124.84 14.7578C124.913 15.127 125.027 15.4574 125.182 15.749C125.337 16.0407 125.53 16.2708 125.763 16.4395C126 16.6035 126.291 16.6855 126.638 16.6855C127.207 16.6855 127.659 16.4098 127.991 15.8584C128.324 15.307 128.49 14.5459 128.49 13.5752ZM138.026 17H135.989C135.634 16.485 135.253 15.9336 134.848 15.3457C134.442 14.7578 134.021 14.1859 133.583 13.6299L133.022 14.1562V15.7559C133.022 15.9199 133.052 16.0566 133.111 16.166C133.171 16.2708 133.266 16.3483 133.398 16.3984C133.508 16.444 133.613 16.4782 133.713 16.501C133.813 16.5238 133.929 16.5397 134.062 16.5488V17H130.753V16.5488C130.858 16.5397 130.967 16.5306 131.081 16.5215C131.195 16.5078 131.291 16.4896 131.368 16.4668C131.496 16.4258 131.591 16.3551 131.655 16.2549C131.719 16.1501 131.751 16.0156 131.751 15.8516V8.01758C131.751 7.84896 131.715 7.69173 131.642 7.5459C131.573 7.39551 131.482 7.28158 131.368 7.2041C131.272 7.13118 131.122 7.08333 130.917 7.06055C130.716 7.03776 130.555 7.02181 130.432 7.0127V6.5752L132.927 6.41797L133.022 6.52051V13.6504C133.378 13.2949 133.761 12.9144 134.171 12.5088C134.586 12.0986 134.934 11.734 135.217 11.415C135.253 11.374 135.292 11.3216 135.333 11.2578C135.379 11.1895 135.401 11.1348 135.401 11.0938C135.401 10.9707 135.301 10.8796 135.101 10.8203C134.905 10.7611 134.715 10.7201 134.533 10.6973V10.2598H137.5V10.6836C137.117 10.7975 136.778 10.9411 136.481 11.1143C136.19 11.2829 135.966 11.4355 135.812 11.5723C135.702 11.6634 135.547 11.8115 135.347 12.0166C135.146 12.2217 134.866 12.4906 134.506 12.8232C134.88 13.2835 135.299 13.835 135.764 14.4775C136.233 15.1201 136.575 15.585 136.789 15.8721C136.99 16.141 137.17 16.3164 137.329 16.3984C137.489 16.4805 137.721 16.5306 138.026 16.5488V17Z" fill="white"/>
<path d="M32.5 18.5791H137.89V19.2695H32.5V18.5791Z" fill="white"/>
<defs>
<clipPath id="clip0_2950_567">
<rect width="24" height="24" fill="white" transform="translate(0.5)"/>
</clipPath>
</defs>
</svg>
